<?xml version="1.0" encoding="utf-8"?>
<svg width="256" height="256" viewBox="0 0 256 256" fill="none" xmlns="http://www.w3.org/2000/svg">
  <g>
    <rect width="192" height="80" fill="#F2F2F2" fill-rule="evenodd" stroke-width="5" stroke="#4C4C4C" transform="translate(32 136)" />
    <rect width="38" height="16" fill="#4C4C4C" fill-rule="evenodd" transform="translate(32 136)" />
    <rect width="38" height="16" fill="#4C4C4C" fill-rule="evenodd" transform="translate(186 136)" />
    <rect width="38" height="16" fill="#4C4C4C" fill-rule="evenodd" transform="translate(32 200)" />
    <line x1="0" y1="0" x2="64" y2="0" fill="none" stroke-width="14" stroke="#ED7358" stroke-linecap="square" transform="translate(144 64)" />
    <line x1="0" y1="0" x2="0" y2="64" fill="none" stroke-width="14" stroke="#24D63F" stroke-linecap="square" transform="translate(80 32)" />
    <line x1="64" y1="0" x2="0" y2="0" fill="none" stroke-width="14" stroke="#24D63F" stroke-linecap="square" transform="translate(48 64)" />
    <path d="M20.1094 21.6562L20.1094 8.08594L24.4219 8.08594L24.4219 44.5547L20.1094 44.5547L20.1094 41.25Q19.0312 43.1953 17.2383 44.2148Q15.4453 45.2344 13.1016 45.2344Q8.34375 45.2344 5.61328 41.543Q2.88281 37.8516 2.88281 31.3594Q2.88281 24.9609 5.625 21.3164Q8.36719 17.6719 13.1016 17.6719Q15.4688 17.6719 17.2734 18.6914Q19.0781 19.7109 20.1094 21.6562ZM7.42969 31.4531Q7.42969 36.4688 9.02344 39.0234Q10.6172 41.5781 13.7344 41.5781Q16.8516 41.5781 18.4805 39Q20.1094 36.4219 20.1094 31.4531Q20.1094 26.4609 18.4805 23.8945Q16.8516 21.3281 13.7344 21.3281Q10.6172 21.3281 9.02344 23.8828Q7.42969 26.4375 7.42969 31.4531ZM34.8984 18.3047L45.9375 18.3047L45.9375 41.2031L54.4922 41.2031L54.4922 44.5547L33.0703 44.5547L33.0703 41.2031L41.625 41.2031L41.625 21.6562L34.8984 21.6562L34.8984 18.3047ZM41.625 8.08594L45.9375 8.08594L45.9375 13.5469L41.625 13.5469L41.625 8.08594ZM82.7109 8.08594L82.7109 11.6719L77.8125 11.6719Q75.4922 11.6719 74.5898 12.6211Q73.6875 13.5703 73.6875 15.9844L73.6875 18.3047L82.7109 18.3047L82.7109 21.6562L73.6875 21.6562L73.6875 44.5547L69.375 44.5547L69.375 21.6562L62.3672 21.6562L62.3672 18.3047L69.375 18.3047L69.375 16.4766Q69.375 12.1641 71.3555 10.125Q73.3359 8.08594 77.5312 8.08594L82.7109 8.08594ZM111.609 8.08594L111.609 11.6719L106.711 11.6719Q104.391 11.6719 103.488 12.6211Q102.586 13.5703 102.586 15.9844L102.586 18.3047L111.609 18.3047L111.609 21.6562L102.586 21.6562L102.586 44.5547L98.2734 44.5547L98.2734 21.6562L91.2656 21.6562L91.2656 18.3047L98.2734 18.3047L98.2734 16.4766Q98.2734 12.1641 100.254 10.125Q102.234 8.08594 106.43 8.08594L111.609 8.08594Z" fill="#000000" transform="translate(70 150)" />
  </g>
</svg>